# xmcd
#
# Track frame offsets: 
#        150
#        23320
#        44643
#        79570
#        99074
#        123329
#        143896
#        166477
#
# Disc length: 2722 seconds
#
# Revision: 1
# Processed by: cddbd v1.5.2PL0 Copyright (c) Steve Scherf et al.
# Submitted via: ExactAudioCopy v1.0b3
#
DISCID=560aa008
DTITLE=Madleen Kane - Cheri
DYEAR=1979
DGENRE=Disco
TTITLE0=Forbidden Love - Fire In Your Heart
TTITLE1=Cheri
TTITLE2=Secret Love Affair
TTITLE3=You And I
TTITLE4=Don't Leave Me Now
TTITLE5=Couldn't Find A Better Way For Saying Good-bye
TTITLE6=Retro (I Long For Long Ago)
TTITLE7=Forbidden Love (12" version) [bonus track]
EXTD=
EXTT0=
EXTT1=
EXTT2=
EXTT3=
EXTT4=
EXTT5=
EXTT6=
EXTT7=
PLAYORDER=
